<svg width="32" height="32" viewBox="0 0 32 32" fill="none" xmlns="http://www.w3.org/2000/svg">
<path d="M3.63748 7.50269C1.97385 9.91832 1 12.8454 1 16.0002C1 24.2845 7.71584 31.0004 16.0002 31.0004" stroke="#182D61" stroke-linecap="round" stroke-linejoin="round"/>
<path d="M16.0002 27.019C9.91472 27.019 4.98145 22.0857 4.98145 16.0002C4.98145 9.91466 9.91472 4.98138 16.0002 4.98138C22.0858 4.98138 27.019 9.91466 27.019 16.0002C27.019 19.0352 25.7844 21.7911 23.7992 23.7841L22.1416 22.1415V28.2206H28.2207L26.6069 26.6068C29.3212 23.8925 31.0004 20.1421 31.0004 16.0002C31.0004 7.71584 24.2846 1 16.0002 1C12.8454 1 9.91838 1.97385 7.50274 3.63748" stroke="#182D61" stroke-linecap="round" stroke-linejoin="round"/>
<path d="M9.6521 18.9277L11.8505 13.155C11.8953 13.0452 12.0508 13.0448 12.0961 13.155L14.2748 18.9277" stroke="#182D61" stroke-linecap="round" stroke-linejoin="round"/>
<path d="M10.3386 17.49H13.6009" stroke="#182D61" stroke-linecap="round" stroke-linejoin="round"/>
<path d="M16.8374 13.0725V18.9225C16.8836 18.9339 18.3011 18.9225 18.3011 18.9225" stroke="#182D61" stroke-linecap="round" stroke-linejoin="round"/>
<path d="M20.8855 13.0725V18.9225C20.9317 18.9339 22.3492 18.9225 22.3492 18.9225" stroke="#182D61" stroke-linecap="round" stroke-linejoin="round"/>
<path d="M22.1418 25.1505C20.3871 26.3307 18.2738 27.0195 16 27.0195" stroke="#182D61" stroke-linecap="round" stroke-linejoin="round"/>
<path d="M16 31.0003C19.2436 31.0003 22.247 29.9707 24.7006 28.2206" stroke="#182D61" stroke-linecap="round" stroke-linejoin="round"/>
</svg>
