<svg width="30" height="30" viewBox="0 0 30 30" fill="none" xmlns="http://www.w3.org/2000/svg">
<g clip-path="url(#clip0_550_1676)">
<path d="M15 30C10.9934 30 7.2266 28.4397 4.39342 25.6066C1.56029 22.7734 0 19.0066 0 15C0 12.9271 0.41502 10.9205 1.23346 9.03586C1.3302 8.81332 1.589 8.71131 1.8116 8.80781C2.0342 8.90449 2.13633 9.16336 2.03965 9.38596C1.26943 11.1594 0.878906 13.0482 0.878906 15C0.878906 18.7718 2.34779 22.3179 5.01492 24.9851C7.68205 27.6523 11.2282 29.1211 15 29.1211C18.7718 29.1211 22.3179 27.6522 24.9851 24.9851C27.6523 22.3179 29.1211 18.7718 29.1211 15C29.1211 11.2282 27.6522 7.68211 24.9851 5.01492C22.3179 2.34773 18.7718 0.878906 15 0.878906C12.5414 0.878906 10.1207 1.52027 7.99945 2.73369C5.94146 3.91096 4.19771 5.60197 2.95676 7.62381C2.82979 7.83065 2.55926 7.89539 2.35236 7.76848C2.14553 7.6415 2.08078 7.37092 2.2077 7.16408C3.52559 5.01691 5.37744 3.22113 7.56305 1.9708C9.81691 0.681504 12.3885 0 15 0C19.0066 0 22.7734 1.56029 25.6066 4.39342C28.4397 7.2266 30 10.9934 30 15C30 19.0066 28.4397 22.7734 25.6066 25.6066C22.7734 28.4397 19.0066 30 15 30Z" fill="#0F5132"/>
<path d="M15 27.6562C8.02131 27.6562 2.34375 21.9787 2.34375 15C2.34375 8.02131 8.02131 2.34375 15 2.34375C21.9787 2.34375 27.6562 8.02131 27.6562 15C27.6562 16.0124 27.5355 17.0211 27.2974 17.998C27.2399 18.2338 27.0022 18.3784 26.7664 18.3209C26.5307 18.2635 26.3861 18.0257 26.4435 17.7899C26.665 16.881 26.7773 15.9424 26.7773 15C26.7773 8.50594 21.4941 3.22266 15 3.22266C8.50594 3.22266 3.22266 8.50594 3.22266 15C3.22266 21.4941 8.50594 26.7773 15 26.7773C19.7 26.7773 23.9453 23.9839 25.8156 19.6607C25.912 19.4379 26.1707 19.3355 26.3934 19.4319C26.6162 19.5282 26.7186 19.7869 26.6222 20.0096C24.6128 24.6548 20.0507 27.6562 15 27.6562Z" fill="#0F5132"/>
<path d="M14.2289 22.643C13.4642 22.643 12.7497 22.3024 12.2685 21.7085L10.0185 18.9318C9.86569 18.7432 9.89469 18.4665 10.0832 18.3137C10.2717 18.1609 10.5485 18.1899 10.7014 18.3784L12.9514 21.1552C13.2649 21.5421 13.7305 21.7641 14.2289 21.7641C14.2836 21.7641 14.3391 21.7613 14.3939 21.7558C14.9472 21.7 15.4309 21.3725 15.6879 20.8795L21.0234 10.6409C21.4421 9.83673 21.1286 8.8414 20.3246 8.42234C19.9351 8.21931 19.4899 8.18029 19.0709 8.31218C18.6519 8.44419 18.3092 8.73148 18.1061 9.12113L14.2384 16.5431C14.17 16.6744 14.04 16.7625 13.8927 16.7773C13.7451 16.7924 13.6005 16.7318 13.5072 16.6167L11.0773 13.6179C10.8007 13.2767 10.4077 13.0635 9.97075 13.0177C9.53416 12.972 9.10526 13.099 8.76407 13.3756C8.4227 13.6521 8.20959 14.0448 8.16377 14.4817C8.11795 14.9186 8.2451 15.3471 8.52166 15.6883L9.41293 16.7882C9.56569 16.9767 9.53674 17.2535 9.34819 17.4063C9.15957 17.559 8.88289 17.53 8.73008 17.3415L7.83887 16.2417C7.41448 15.7181 7.21942 15.0605 7.28967 14.3901C7.35993 13.7197 7.68705 13.1169 8.21077 12.6927C8.7343 12.2683 9.39184 12.0733 10.0624 12.1435C10.7328 12.2138 11.3357 12.5408 11.7602 13.0645L13.7685 15.543L17.3268 8.7149C17.6384 8.11706 18.164 7.67632 18.8069 7.47382C19.4498 7.2712 20.1331 7.33126 20.7309 7.64286C21.9645 8.28587 22.4454 9.81288 21.8029 11.0468L16.4673 21.2857C16.073 22.0421 15.3309 22.5447 14.4821 22.6301C14.3981 22.6387 14.313 22.643 14.2289 22.643Z" fill="#0F5132"/>
</g>
<defs>
<clipPath id="clip0_550_1676">
<rect width="30" height="30" fill="white"/>
</clipPath>
</defs>
</svg>
