<svg width="31" height="31" viewBox="0 0 31 31" fill="none" xmlns="http://www.w3.org/2000/svg">
<g clip-path="url(#clip0_550_1688)">
<path d="M12.8992 5.073C12.6483 5.073 12.4451 5.27625 12.4451 5.5271V6.16902C12.4451 6.41986 12.6483 6.62312 12.8992 6.62312C13.15 6.62312 13.3533 6.41986 13.3533 6.16902V5.5271C13.3533 5.27625 13.15 5.073 12.8992 5.073Z" fill="#C66310"/>
<path d="M18.2066 8.55545L18.6605 8.10159C18.8379 7.92425 18.8379 7.63671 18.6605 7.45943C18.4832 7.28215 18.1957 7.28203 18.0184 7.45937L17.5645 7.91323C17.3871 8.09057 17.3871 8.37811 17.5644 8.55539C17.7417 8.73273 18.0292 8.73285 18.2066 8.55545Z" fill="#C66310"/>
<path d="M20.5929 13.6748C20.8438 13.6748 21.047 13.4715 21.047 13.2207C21.047 12.9699 20.8438 12.7666 20.5929 12.7666H19.9509C19.7001 12.7666 19.4968 12.9699 19.4968 13.2207C19.4968 13.4715 19.7001 13.6748 19.9509 13.6748H20.5929Z" fill="#C66310"/>
<path d="M12.6318 20.4592V21.1012C12.6318 21.3521 12.8351 21.5553 13.0859 21.5553C13.3368 21.5553 13.54 21.3521 13.54 21.1012V20.4592C13.54 20.2084 13.3368 20.0051 13.0859 20.0051C12.8351 20.0051 12.6318 20.2084 12.6318 20.4592Z" fill="#C66310"/>
<path d="M7.13789 18.982C7.31535 19.1594 7.60277 19.1593 7.78011 18.982L8.23403 18.5281C8.41137 18.3507 8.41137 18.0632 8.23403 17.8859C8.05663 17.7086 7.76915 17.7086 7.59181 17.8859L7.13789 18.3398C6.96055 18.5172 6.96055 18.8047 7.13789 18.982Z" fill="#C66310"/>
<path d="M5.84748 13.6748C6.09833 13.6748 6.30159 13.4715 6.30159 13.2207C6.30159 12.9699 6.09833 12.7666 5.84748 12.7666H5.20557C4.95472 12.7666 4.75146 12.9699 4.75146 13.2207C4.75146 13.4715 4.95472 13.6748 5.20557 13.6748H5.84748Z" fill="#C66310"/>
<path d="M7.59186 8.55547C7.76914 8.73275 8.05668 8.73281 8.23402 8.55541C8.41136 8.37807 8.41136 8.09053 8.23396 7.91325L7.78004 7.45939C7.60276 7.28211 7.31522 7.28205 7.13788 7.45945C6.96054 7.63679 6.96054 7.92433 7.13794 8.10161L7.59186 8.55547Z" fill="#C66310"/>
<path d="M12.445 12.3315L11.6188 11.527C11.4391 11.352 11.1515 11.3559 10.9767 11.5356C10.8017 11.7153 10.8055 12.0027 10.9852 12.1777L12.5823 13.7329C12.8677 14.0109 13.3532 13.811 13.3532 13.4075V9.11011C13.3532 8.85926 13.1499 8.65601 12.8991 8.65601C12.6483 8.65601 12.445 8.85926 12.445 9.11011V12.3315Z" fill="#C66310"/>
<path d="M25.7159 14.6745C25.7703 14.1906 25.7983 13.7032 25.7983 13.2207C25.7983 9.90374 24.5415 6.75179 22.2594 4.34566C22.0868 4.16366 21.7993 4.15615 21.6174 4.32871C21.4354 4.50133 21.4278 4.78874 21.6005 4.97069C23.7218 7.20735 24.8901 10.1373 24.8901 13.2208C24.8901 13.6076 24.8706 13.998 24.8329 14.3868C24.2029 14.2203 23.5438 14.1263 22.8649 14.1144C22.8915 13.8162 22.9064 13.5173 22.9064 13.2207C22.9064 7.70268 18.4171 3.21343 12.8991 3.21343C7.38115 3.21343 2.8919 7.70268 2.8919 13.2207C2.8919 14.3328 3.07354 15.426 3.4318 16.47C3.4964 16.6584 3.67265 16.7768 3.86125 16.7768C3.91018 16.7768 3.95989 16.7688 4.00875 16.7521C4.24597 16.6706 4.37227 16.4124 4.29083 16.1752C3.96521 15.2264 3.80016 14.2323 3.80016 13.2207C3.80016 8.20346 7.88199 4.12164 12.8992 4.12164C17.9165 4.12164 21.9983 8.20346 21.9983 13.2207C21.9983 13.5284 21.9818 13.839 21.9504 14.1483C17.8086 14.5302 14.5401 17.9739 14.4366 22.1892C13.9297 22.2754 13.4142 22.3198 12.8992 22.3198C9.65874 22.3198 6.63757 20.5746 5.01461 17.7652C4.88916 17.5479 4.61137 17.4738 4.39425 17.5991C4.17713 17.7246 4.10278 18.0023 4.22823 18.2195C5.96132 21.2196 9.20185 23.2281 12.8992 23.2281C13.4231 23.2281 13.9476 23.1869 14.4648 23.1056C14.5222 23.7794 14.6601 24.4306 14.8699 25.0491C14.22 25.1566 13.5594 25.2118 12.8993 25.2118C6.28731 25.2117 0.908203 19.8326 0.908203 13.2207C0.908203 6.6089 6.28731 1.22974 12.8991 1.22974C15.6151 1.22974 18.1764 2.11517 20.3061 3.79032C20.5032 3.94545 20.7888 3.9113 20.9438 3.71416C21.0989 3.51702 21.0647 3.23154 20.8676 3.07654C18.5763 1.27418 15.8208 0.321533 12.8991 0.321533C5.78652 0.321533 0 6.10806 0 13.2207C0 20.3334 5.78652 26.1199 12.8991 26.1199C13.6766 26.1199 14.455 26.0494 15.2181 25.9108C16.5428 28.7253 19.4059 30.6785 22.7169 30.6785C24.4331 30.6785 26.0798 30.1578 27.4791 29.1729C27.6843 29.0286 27.7335 28.7453 27.5891 28.5403C27.4448 28.3351 27.1614 28.2859 26.9564 28.4303C25.7109 29.307 24.245 29.7703 22.7169 29.7703C18.7003 29.7703 15.342 26.5153 15.342 22.3955C15.342 18.329 18.6504 15.0207 22.7169 15.0207C26.7833 15.0207 30.0917 18.329 30.0917 22.3955C30.0917 24.201 29.4319 25.9387 28.2341 27.2884C28.0676 27.4761 28.0847 27.7631 28.2723 27.9295C28.46 28.0961 28.747 28.0789 28.9134 27.8913C30.2589 26.3752 30.9999 24.4234 30.9999 22.3954C30.9999 18.8853 28.8051 15.8785 25.7159 14.6745Z" fill="#C66310"/>
<path d="M24.0793 17.9286C24.0793 17.1774 23.4682 16.5663 22.717 16.5663C21.9659 16.5663 21.3547 17.1774 21.3547 17.9286V23.3509C21.3547 24.102 21.9659 24.7132 22.717 24.7132C23.4682 24.7132 24.0793 24.102 24.0793 23.3509V17.9286ZM23.1711 23.3509C23.1711 23.6013 22.9675 23.805 22.717 23.805C22.4666 23.805 22.2629 23.6013 22.2629 23.3509V17.9286C22.2629 17.6782 22.4666 17.4745 22.717 17.4745C22.9675 17.4745 23.1711 17.6782 23.1711 17.9286V23.3509Z" fill="#C66310"/>
<path d="M22.717 24.9216C21.9659 24.9216 21.3547 25.5328 21.3547 26.2839V26.8625C21.3547 27.6136 21.9659 28.2248 22.717 28.2248C23.4682 28.2248 24.0793 27.6136 24.0793 26.8625V26.2839C24.0793 25.5328 23.4682 24.9216 22.717 24.9216ZM23.1711 26.8625C23.1711 27.1129 22.9675 27.3166 22.717 27.3166C22.4666 27.3166 22.2629 27.1129 22.2629 26.8625V26.2839C22.2629 26.0335 22.4666 25.8298 22.717 25.8298C22.9675 25.8298 23.1711 26.0335 23.1711 26.2839V26.8625Z" fill="#C66310"/>
</g>
<defs>
<clipPath id="clip0_550_1688">
<rect width="31" height="31" fill="white"/>
</clipPath>
</defs>
</svg>
