<svg xmlns="http://www.w3.org/2000/svg" width="24" height="24" viewBox="0 0 24 24">
  <path id="Path_1673" data-name="Path 1673" d="M13.428,2A11.433,11.433,0,0,1,24.856,13.313a6.926,6.926,0,0,1-1.743-.647,9.713,9.713,0,0,0-.24-1.517H20.654a1.848,1.848,0,0,0-.741,0h-.879c.014.141.026.281.037.423a8.98,8.98,0,0,1-1.655,1.114q-.027-.789-.107-1.536H9.547A21.712,21.712,0,0,0,9.7,16.869h3.727v1.716h-3.36c.746,2.761,2.041,4.577,3.36,4.577a1.728,1.728,0,0,0,.936-.3,7.935,7.935,0,0,0,1.368,1.784A11.44,11.44,0,1,1,13.428,2ZM8.295,18.586H5.183a9.752,9.752,0,0,0,4.68,3.9,12.545,12.545,0,0,1-1.451-3.448l-.117-.452ZM7.821,11.15H3.983l0,.019a9.778,9.778,0,0,0,.357,5.7H7.961a23.238,23.238,0,0,1-.249-3.431c0-.782.038-1.549.109-2.289ZM9.864,4.391,9.838,4.4A9.753,9.753,0,0,0,4.572,9.435H8.055A14.123,14.123,0,0,1,9.864,4.391Zm3.564-.676L13.3,3.72c-1.447.133-2.843,2.422-3.492,5.714h7.249c-.647-3.283-2.039-5.569-3.48-5.713l-.144-.006Zm3.566.675.121.2A14.427,14.427,0,0,1,18.8,9.436h3.483a9.755,9.755,0,0,0-4.957-4.907l-.333-.138Zm8.434,10.166a8.807,8.807,0,0,1-4.7-2.139.686.686,0,0,0-.88,0,8.82,8.82,0,0,1-4.7,2.139.615.615,0,0,0-.571.6v4c0,4.83,4.679,6.538,5.569,6.819a.48.48,0,0,0,.291,0c.891-.281,5.568-1.99,5.568-6.819v-4a.615.615,0,0,0-.571-.6Z" transform="translate(-1.998 -1.998)" fill="#8699ad"/>
</svg>
